<svg width="42" height="42" viewBox="0 0 42 42" fill="none" xmlns="http://www.w3.org/2000/svg">
<g clip-path="url(#clip0_4139_21171)">
<path d="M6.10033 34.1591C5.86864 34.3924 5.73911 34.7081 5.74024 35.0369C5.74138 35.3657 5.87308 35.6806 6.10638 35.9123C6.33968 36.144 6.65547 36.2736 6.98427 36.2724C7.31307 36.2713 7.62796 36.1396 7.85965 35.9063L8.18613 35.5919C10.0543 33.7117 14.5523 27.4482 14.5523 27.4482C14.5523 27.4482 8.2889 31.9463 6.40867 33.8568C6.30589 33.9293 6.20311 34.0442 6.10033 34.1591Z" fill="#C9FC5F"/>
<path d="M27.4492 27.4482C27.4492 27.4482 31.9473 33.7117 33.8577 35.5919L34.1903 35.9063C34.422 36.138 34.7362 36.2681 35.0639 36.2681C35.3915 36.2681 35.7058 36.138 35.9375 35.9063C36.1692 35.6746 36.2993 35.3603 36.2993 35.0327C36.2993 34.705 36.1692 34.3907 35.9375 34.1591L35.5929 33.8568C33.7126 31.9463 27.4492 27.4482 27.4492 27.4482Z" fill="#C9FC5F"/>
<path d="M40.3862 19.7515C37.8947 19.8854 35.4124 20.1538 32.9499 20.5556C32.6364 20.5888 32.3203 20.5888 32.0068 20.5556H31.904C29.2651 20.1676 26.8209 18.9415 24.9321 17.0582C23.0434 15.1748 21.8102 12.7342 21.4146 10.0964C21.4146 10.0964 21.4146 10.042 21.4146 9.99367C21.3872 9.68543 21.3953 9.37506 21.4387 9.06867C21.8402 6.59989 22.1106 4.1116 22.2489 1.61423C22.2489 1.46913 22.2489 1.32403 22.2489 1.17288C22.2489 0.844981 22.1186 0.530508 21.8868 0.298645C21.6549 0.0667825 21.3404 -0.0634766 21.0125 -0.0634766C20.6846 -0.0634766 20.3701 0.0667825 20.1383 0.298645C19.9064 0.530508 19.7762 0.844981 19.7762 1.17288C19.7762 1.32403 19.7762 1.46913 19.7762 1.61423C19.9044 4.11106 20.1648 6.59935 20.5561 9.06867C20.6044 9.37857 20.6166 9.69305 20.5923 10.0058C20.5923 10.0541 20.5923 10.0844 20.5923 10.1085C20.1999 12.7504 18.9674 15.1958 17.0772 17.0828C15.187 18.9698 12.7394 20.198 10.0969 20.5859H9.99409C9.68554 20.6078 9.37555 20.5976 9.06908 20.5556C6.60684 20.1497 4.12445 19.8773 1.63278 19.7395H1.19144C0.863536 19.7395 0.549062 19.8697 0.3172 20.1016C0.0853372 20.3334 -0.0449219 20.6479 -0.0449219 20.9758C-0.0449219 21.3037 0.0853372 21.6182 0.3172 21.8501C0.549062 22.0819 0.863536 22.2122 1.19144 22.2122H1.63278C4.12348 22.0857 6.60572 21.8274 9.06908 21.4383C9.38103 21.3901 9.69749 21.3779 10.0122 21.402H10.115C12.7563 21.7969 15.2005 23.0311 17.0862 24.9223C18.9719 26.8134 20.1991 29.2611 20.5863 31.9036C20.5863 31.9036 20.5863 31.964 20.5863 32.0063C20.6124 32.3208 20.6023 32.6373 20.5561 32.9495C20.1548 35.4122 19.8844 37.8944 19.7459 40.3858C19.7459 40.5309 19.7459 40.676 19.7459 40.8271C19.7459 41.155 19.8762 41.4695 20.108 41.7014C20.3399 41.9332 20.6544 42.0635 20.9823 42.0635C21.3102 42.0635 21.6247 41.9332 21.8565 41.7014C22.0884 41.4695 22.2186 41.155 22.2186 40.8271C22.2186 40.676 22.2186 40.5309 22.2186 40.3858C22.0802 37.8944 21.8098 35.4122 21.4085 32.9495C21.3603 32.6375 21.3481 32.3211 21.3722 32.0063C21.3742 31.9721 21.3742 31.9378 21.3722 31.9036C21.7651 29.2546 23.0022 26.8031 24.8996 24.9133C26.797 23.0235 29.2535 21.7964 31.904 21.4141H32.0068C32.3215 21.39 32.638 21.4022 32.9499 21.4504C35.4128 21.8476 37.8951 22.114 40.3862 22.2485H40.8275C41.1554 22.2485 41.4699 22.1182 41.7018 21.8863C41.9336 21.6545 42.0639 21.34 42.0639 21.0121C42.0639 20.6842 41.9336 20.3697 41.7018 20.1379C41.4699 19.906 41.1554 19.7757 40.8275 19.7757L40.3862 19.7515Z" fill="#C9FC5F"/>
<path d="M35.8287 7.9316C36.033 7.69307 36.1396 7.38615 36.1272 7.07233C36.1149 6.7585 35.9844 6.46094 35.7619 6.23924C35.5395 6.01754 35.2414 5.88808 34.9276 5.87678C34.6137 5.86549 34.3072 5.97319 34.0693 6.17832L33.8275 6.40806C31.9473 8.2883 27.4492 14.5517 27.4492 14.5517C27.4492 14.5517 33.7126 10.0537 35.5929 8.17343L35.8287 7.9316Z" fill="#C9FC5F"/>
<path d="M8.175 6.40866L7.92108 6.16683C7.68858 5.93433 7.37324 5.80371 7.04444 5.80371C6.71564 5.80371 6.4003 5.93433 6.1678 6.16683C5.9353 6.39932 5.80469 6.71466 5.80469 7.04346C5.80469 7.37227 5.9353 7.6876 6.1678 7.9201C6.2464 8.01079 6.33104 8.09543 6.40963 8.17402C8.22337 9.98776 14.112 14.2198 14.5291 14.5402C14.2329 14.111 9.98269 8.22239 8.175 6.40866Z" fill="#C9FC5F"/>
</g>
<defs>
<clipPath id="clip0_4139_21171">
<rect width="42" height="42" fill="white"/>
</clipPath>
</defs>
</svg>
